<?xml version="1.0" standalone="no"?>
<!DOCTYPE svg PUBLIC "-//W3C//DTD SVG 20010904//EN"
 "http://www.w3.org/TR/2001/REC-SVG-20010904/DTD/svg10.dtd">
<svg version="1.0" xmlns="http://www.w3.org/2000/svg"
 width="288.000000pt" height="288.000000pt" viewBox="0 0 288.000000 288.000000"
 preserveAspectRatio="xMidYMid meet">
<metadata>
Created by potrace 1.14, written by Peter Selinger 2001-2017
</metadata>
<g transform="translate(0.000000,288.000000) scale(0.100000,-0.100000)"
fill="#000000" stroke="none">
<path d="M1135 2370 c3 -14 2 -19 -1 -12 -8 17 -24 15 -24 -3 0 -8 -4 -15 -10
-15 -5 0 -9 -6 -7 -12 1 -7 -4 -12 -12 -10 -12 3 -12 0 -1 -12 10 -13 10 -16
0 -16 -9 0 -9 -4 1 -17 12 -15 12 -16 -5 -10 -16 6 -17 5 -6 -8 11 -13 10 -14
-3 -10 -18 7 -32 -11 -17 -20 7 -5 5 -12 -7 -22 -10 -8 -13 -12 -6 -9 16 9 10
-53 -6 -64 -10 -6 -9 -10 5 -20 18 -11 18 -11 0 -6 -14 5 -17 2 -12 -10 5 -14
4 -15 -8 -5 -12 10 -13 8 -9 -10 5 -17 3 -20 -8 -14 -11 7 -12 6 -3 -6 15 -18
11 -62 -5 -67 -9 -3 -9 -8 1 -20 10 -12 10 -14 1 -8 -7 4 -13 4 -14 -1 0 -4
-3 -17 -5 -28 -3 -11 -7 -29 -9 -40 -2 -11 -4 -22 -5 -25 -1 -3 -2 -9 -1 -13
1 -5 -4 -5 -10 -1 -9 5 -10 2 -6 -9 4 -11 1 -17 -7 -17 -9 0 -12 -7 -9 -20 3
-12 0 -20 -6 -20 -7 0 -9 5 -5 12 4 7 3 8 -4 4 -6 -4 -9 -13 -6 -21 4 -8 11
-12 17 -8 6 3 7 1 3 -5 -4 -7 -9 -22 -11 -33 -3 -12 -7 -24 -10 -28 -4 -3 -4
7 -1 22 3 15 1 25 -4 22 -4 -3 -7 -20 -6 -39 1 -19 -3 -32 -8 -29 -5 4 -7 -3
-4 -14 3 -12 -1 -24 -11 -30 -9 -6 -17 -21 -18 -34 -2 -18 0 -20 7 -9 7 11 9
10 7 -8 -1 -17 -6 -21 -22 -17 -11 3 -14 2 -7 -1 6 -3 12 -10 12 -15 0 -6 -4
-8 -8 -5 -5 3 -9 -1 -9 -9 0 -8 5 -11 11 -8 6 3 5 0 -1 -8 -7 -7 -13 -17 -13
-22 0 -4 6 -5 13 -1 9 5 9 3 -1 -7 -11 -12 -14 -12 -22 1 -7 12 -9 10 -7 -7 0
-12 4 -20 7 -18 4 2 7 -2 7 -11 0 -10 -7 -13 -21 -9 -18 5 -19 5 -4 -5 19 -11
13 -44 -6 -37 -8 3 -10 -7 -8 -31 3 -22 1 -32 -6 -28 -5 3 -15 -1 -21 -8 -9
-10 -9 -16 -1 -21 8 -5 7 -11 -2 -23 -7 -9 -8 -13 -3 -10 6 4 11 -2 11 -12 0
-15 -3 -17 -15 -7 -12 10 -13 9 -2 -12 10 -17 10 -22 1 -16 -9 5 -10 1 -5 -15
5 -15 4 -20 -4 -16 -6 4 -11 2 -11 -4 0 -6 -4 -9 -9 -6 -10 7 -8 -35 3 -52 4
-7 2 -12 -4 -12 -7 0 -10 -6 -7 -14 3 -8 -1 -22 -9 -33 -9 -10 -12 -12 -8 -4
5 10 3 12 -6 6 -10 -6 -9 -11 6 -23 18 -14 18 -14 -2 -8 -14 4 -21 2 -21 -8 0
-9 5 -12 11 -9 6 4 3 -3 -7 -14 -14 -16 -15 -23 -6 -29 8 -5 10 -3 4 6 -5 9
-4 11 4 6 8 -6 9 -12 2 -20 -6 -7 -8 -15 -6 -18 3 -3 -6 -13 -20 -22 -22 -15
-24 -19 -14 -39 12 -21 11 -21 -6 -7 -12 10 -16 11 -11 2 4 -7 9 -24 11 -38 2
-20 0 -22 -12 -13 -11 10 -12 8 -7 -5 4 -11 2 -15 -7 -13 -8 2 -11 2 -7 0 3
-2 1 -18 -7 -36 -8 -19 -10 -39 -5 -52 9 -25 -2 -51 -18 -41 -6 3 -13 2 -16
-3 -4 -5 -2 -12 3 -15 8 -5 8 -54 0 -63 -1 -2 -3 -7 -4 -13 -1 -5 -4 -12 -5
-15 -1 -3 -3 -9 -4 -14 0 -5 -4 -12 -8 -16 -8 -9 -5 16 5 31 4 7 1 14 -6 17
-8 3 -13 -13 -15 -54 -3 -60 9 -102 22 -80 4 6 2 11 -3 11 -6 0 -11 7 -11 15
0 12 3 12 18 -3 11 -9 18 -19 16 -22 -1 -3 100 -5 226 -5 184 -1 227 2 223 12
-4 11 -9 11 -20 2 -11 -9 -17 -9 -26 1 -10 10 -9 12 5 7 10 -3 20 -2 24 4 4 7
10 6 18 0 7 -6 17 -7 21 -3 5 4 5 -1 2 -10 -10 -29 3 -21 13 8 6 14 16 24 23
21 7 -3 13 5 13 19 1 13 -2 24 -8 24 -5 0 -6 5 -3 10 4 6 11 7 17 4 7 -5 8 -2
2 7 -14 23 -14 41 1 35 8 -3 17 0 21 6 4 6 3 8 -4 4 -6 -3 -13 -2 -17 4 -3 5
1 10 9 10 10 0 13 6 9 17 -4 11 -3 14 6 9 14 -9 11 16 -4 26 -6 5 -5 8 3 8 6
0 12 7 12 16 0 9 -5 12 -12 8 -7 -5 -8 -3 -4 5 5 7 11 10 14 7 3 -3 15 2 26
11 20 17 20 17 6 -1 -14 -18 -14 -19 10 -5 28 15 62 21 54 8 -2 -4 -12 -5 -22
-2 -9 3 -14 3 -10 -1 9 -10 68 -14 62 -5 -2 4 0 10 6 14 5 3 10 1 10 -5 0 -8
6 -8 20 0 14 7 20 7 20 0 0 -5 -5 -10 -12 -10 -6 0 -8 -3 -5 -7 4 -3 17 2 29
13 12 10 18 13 14 7 -4 -7 -2 -14 3 -14 21 -3 26 -4 41 -14 13 -7 13 -6 2 7
-9 11 -10 18 -2 23 5 3 10 2 10 -3 0 -5 7 -9 15 -9 8 0 15 5 15 11 0 6 4 5 9
-2 10 -17 71 -23 65 -7 -3 6 8 11 26 10 16 0 30 -3 30 -7 0 -5 -5 -8 -12 -8
-6 0 -8 -3 -5 -7 4 -3 17 2 29 13 12 10 18 14 15 8 -4 -7 0 -15 9 -18 8 -3 13
-2 10 3 -3 5 3 11 14 14 11 3 20 1 20 -4 0 -5 -5 -9 -12 -9 -6 0 -8 -3 -5 -7
4 -3 17 2 29 13 12 10 18 14 15 8 -9 -16 24 -28 37 -14 8 8 5 9 -9 5 -16 -6
-17 -5 -5 4 12 8 19 5 33 -12 13 -15 17 -17 13 -5 -3 12 -1 15 9 12 8 -3 11
-12 8 -21 -3 -8 0 -19 8 -24 17 -10 19 -29 5 -48 -8 -11 -8 -13 2 -7 8 5 12 1
12 -11 0 -10 7 -26 14 -36 8 -10 12 -27 9 -37 -3 -11 0 -20 6 -20 6 0 10 -3
10 -8 -4 -24 3 -34 21 -29 13 3 20 0 20 -10 0 -8 -4 -12 -9 -8 -5 3 -12 2 -15
-3 -2 -4 23 -8 57 -7 60 0 94 13 79 31 -4 5 0 4 8 -2 8 -5 30 -9 48 -9 17 1
32 -2 32 -6 0 -4 -18 -6 -40 -4 -22 2 -42 0 -44 -3 -2 -4 28 -7 67 -8 69 0
105 13 89 32 -4 5 2 2 12 -6 23 -18 20 -18 39 -2 11 9 17 10 22 2 5 -8 11 -8
21 1 12 10 13 9 9 -4 -5 -11 -18 -14 -51 -12 -24 1 -46 -1 -48 -4 -3 -4 42 -6
99 -7 57 0 103 3 103 6 -2 24 3 32 15 22 10 -9 13 -1 13 38 0 37 -3 47 -12 39
-8 -7 -14 -4 -18 8 -9 21 -8 24 2 21 4 -2 6 -7 4 -11 -1 -5 2 -6 8 -2 10 6 -8
45 -21 45 -4 0 -10 7 -13 16 -6 14 -4 15 9 4 13 -11 16 -11 13 1 -2 8 -12 17
-23 20 -21 6 -21 7 -11 54 7 28 6 28 -7 11 -14 -19 -14 -19 -12 0 0 11 5 26
10 33 5 10 4 12 -3 7 -8 -5 -12 1 -12 16 0 16 -3 19 -9 10 -7 -11 -9 -10 -14
3 -4 9 -3 13 3 10 18 -11 10 14 -7 25 -14 9 -14 10 -2 7 9 -3 16 1 16 8 0 8
-3 14 -6 13 -19 -2 -22 4 -10 19 12 15 12 16 -3 10 -13 -4 -15 -2 -11 10 5 12
2 15 -8 11 -11 -4 -13 4 -10 40 2 35 0 43 -10 36 -12 -6 -12 -5 -1 8 10 13 10
18 1 24 -8 4 -9 3 -5 -4 5 -8 1 -10 -9 -5 -13 5 -14 7 -3 14 11 7 10 11 -2 19
-8 5 -11 10 -6 10 5 0 1 9 -9 20 -10 11 -15 23 -12 27 4 3 1 13 -6 21 -11 13
-9 14 13 2 25 -13 25 -13 6 8 -10 12 -16 28 -13 37 4 8 2 15 -2 15 -5 0 -12
-6 -14 -12 -4 -8 -6 -7 -6 4 -1 9 5 19 12 22 6 4 1 4 -12 2 -18 -4 -21 -2 -12
7 15 15 14 30 -1 21 -10 -6 -10 -4 0 8 10 13 10 17 -3 21 -11 5 -13 12 -5 31
9 26 -1 43 -19 32 -5 -4 -7 4 -3 16 4 16 2 19 -9 13 -11 -6 -12 -5 -1 6 6 7
12 18 12 24 0 5 -5 3 -10 -5 -8 -13 -10 -13 -10 2 0 9 6 19 13 21 6 3 3 6 -7
6 -11 1 -17 4 -13 7 3 4 0 13 -8 20 -8 8 -12 21 -8 30 3 8 -3 21 -13 29 -18
13 -18 14 -2 20 15 6 14 9 -7 31 -14 14 -22 31 -19 39 4 9 0 15 -7 15 -11 0
-11 3 1 10 13 9 13 10 0 10 -13 0 -13 1 0 10 8 5 10 10 5 10 -14 0 -43 52 -38
67 2 7 -1 22 -7 34 -8 15 -9 19 -1 15 20 -13 11 5 -11 24 l-23 19 25 -5 c25
-4 25 -4 3 7 -13 7 -23 16 -23 21 0 5 6 6 13 2 7 -4 9 -3 4 2 -5 5 -13 10 -18
10 -22 3 -23 5 -9 14 13 9 13 11 0 20 -8 5 -10 10 -4 10 6 0 11 7 11 15 0 11
-4 12 -14 3 -11 -9 -12 -7 -6 7 5 14 3 17 -10 12 -11 -4 -14 -2 -10 9 3 8 -1
22 -8 31 -10 12 -10 15 -1 9 7 -4 12 -1 12 9 0 10 -5 13 -12 9 -8 -5 -7 0 2
11 8 10 10 16 4 12 -7 -4 -15 0 -18 9 -3 8 -2 12 3 9 5 -3 13 0 17 6 4 8 3 9
-4 5 -7 -4 -12 -2 -12 4 0 6 -5 8 -11 4 -8 -5 -8 -1 0 14 7 14 8 23 1 27 -6 4
-8 10 -5 15 3 5 -2 16 -11 24 -9 9 -17 23 -18 30 -1 8 -8 22 -16 32 -9 11 -10
15 -2 10 14 -9 16 3 2 24 -8 12 -10 12 -10 1 0 -8 -3 -11 -6 -8 -4 4 -2 12 3
19 13 16 8 48 -8 58 -8 6 -6 11 7 20 15 9 15 10 2 6 -9 -2 -19 2 -22 10 -3 9
-10 13 -15 9 -5 -3 -13 0 -16 6 -4 5 -13 8 -21 5 -7 -3 -16 -1 -19 4 -6 9 -24
8 -42 -3 -6 -4 -15 -3 -18 3 -5 8 -11 7 -21 -1 -12 -9 -13 -9 -9 3 5 12 20 15
60 13 30 -1 59 1 64 5 6 3 -29 6 -77 6 -83 0 -121 -12 -104 -32 4 -5 0 -4 -8
2 -8 5 -30 9 -47 9 -18 -1 -33 2 -33 6 0 4 18 6 40 4 22 -2 42 0 44 3 2 4 -28
7 -67 8 -69 0 -105 -13 -89 -32 4 -5 0 -4 -8 2 -17 12 -30 12 -47 1 -6 -4 -15
-3 -18 3 -5 8 -11 7 -21 -1 -12 -10 -13 -9 -9 4 5 11 18 14 51 12 24 -1 46 1
48 4 3 4 -56 6 -130 7 l-133 0 4 -26z m155 14 c0 -1 -8 -8 -17 -15 -11 -10
-14 -10 -9 -1 5 9 1 11 -16 8 -13 -3 -23 -5 -23 -6 0 -1 -12 -3 -26 -4 -14 -1
-26 3 -26 9 0 6 24 11 59 11 32 0 58 -1 58 -2z m170 -5 c0 -4 -11 -9 -24 -11
-15 -3 -23 -1 -20 6 5 12 44 16 44 5z m150 5 c0 -2 -9 -8 -20 -14 -15 -8 -18
-8 -14 3 4 11 34 21 34 11z m185 -93 c3 -5 2 -12 -3 -15 -5 -3 -9 1 -9 9 0 17
3 19 12 6z m60 -191 c3 -5 -1 -10 -10 -10 -9 0 -13 5 -10 10 3 6 8 10 10 10 2
0 7 -4 10 -10z m-438 -357 c-3 -5 7 -17 22 -28 14 -10 21 -12 14 -4 -8 10 -9
19 -1 29 8 12 9 12 4 -2 -3 -10 -1 -20 3 -23 5 -3 8 -18 7 -34 -2 -22 2 -28
14 -23 13 5 13 3 1 -11 -11 -14 -11 -17 0 -17 11 0 11 -2 -1 -10 -10 -6 -11
-10 -2 -10 6 0 12 -12 12 -26 0 -15 10 -35 22 -45 11 -11 17 -19 12 -19 -6 0
-16 6 -24 13 -8 6 -4 -1 10 -17 14 -16 20 -26 14 -23 -6 3 -11 0 -11 -8 0 -8
4 -12 9 -9 4 3 8 1 8 -5 0 -5 -6 -12 -12 -14 -7 -3 -4 -6 7 -6 17 -1 17 -3 5
-11 -12 -7 -12 -10 -1 -10 8 0 11 -6 7 -16 -4 -10 -2 -13 6 -8 8 5 9 2 5 -9
-3 -9 -2 -19 4 -22 5 -4 7 -18 4 -33 -3 -16 2 -33 11 -43 9 -10 13 -22 10 -28
-4 -5 -2 -12 4 -16 6 -4 8 -11 5 -16 -3 -5 2 -6 11 -2 11 4 15 3 11 -4 -4 -6
-1 -14 5 -16 8 -3 6 -6 -4 -6 -10 -1 -18 -6 -18 -12 0 -5 5 -7 11 -3 8 4 9 -1
4 -16 -5 -17 -4 -21 6 -15 11 6 11 5 3 -4 -6 -7 -20 -13 -32 -14 -11 0 -18 -5
-16 -9 3 -4 0 -8 -5 -8 -6 0 -11 6 -11 14 0 8 -4 18 -10 21 -6 4 -7 -1 -3 -12
3 -10 3 -15 -2 -11 -4 4 -15 2 -23 -5 -13 -10 -14 -8 -7 12 6 21 5 22 -8 10
-8 -8 -13 -17 -11 -21 2 -4 0 -9 -5 -12 -5 -4 -13 -1 -17 5 -5 8 -3 9 6 4 9
-5 11 -4 6 4 -6 9 -11 9 -24 -1 -13 -11 -14 -11 -8 1 6 9 5 12 -5 9 -8 -3 -13
-11 -11 -18 2 -11 0 -11 -12 -1 -10 8 -16 9 -21 1 -3 -5 -11 -10 -18 -10 -6 0
-2 6 8 14 11 8 24 12 29 9 5 -4 6 -1 2 5 -5 9 -15 8 -37 -3 -16 -9 -29 -13
-29 -9 0 4 -7 1 -15 -6 -9 -7 -18 -10 -22 -6 -3 3 -1 6 6 6 7 0 9 5 6 10 -4 6
-12 7 -18 3 -7 -4 -21 -9 -32 -10 -16 -2 -17 -1 -5 6 8 5 17 8 20 6 4 -2 7 2
7 10 0 8 -4 12 -8 9 -13 -8 -29 31 -19 46 5 8 6 18 3 23 -3 5 0 13 8 17 10 7
10 12 1 23 -13 16 -6 28 12 21 7 -3 13 2 13 10 0 8 -5 12 -10 9 -6 -3 -7 -1
-3 5 4 7 2 12 -5 12 -7 0 -10 3 -7 6 4 3 16 0 28 -6 21 -11 21 -11 6 12 -16
24 -7 56 12 44 6 -4 8 2 5 14 -3 11 -10 17 -17 13 -6 -4 -5 1 2 10 8 9 10 22
6 28 -5 8 -3 9 5 5 7 -5 10 -15 7 -23 -3 -8 -1 -11 4 -8 6 4 10 12 9 18 -3 25
1 48 9 44 4 -3 8 7 8 21 2 26 1 26 -9 5 -5 -13 -14 -23 -19 -23 -5 0 -1 11 8
25 9 14 12 30 8 37 -6 9 -3 9 10 -1 15 -12 17 -12 14 0 -2 8 -7 18 -13 22 -6
5 1 6 15 3 22 -4 23 -3 8 8 -15 11 -15 13 4 25 11 7 17 15 13 19 -3 3 -10 1
-14 -7 -7 -10 -9 -9 -14 3 -4 9 -3 15 1 15 19 -3 22 3 11 24 -11 20 -11 21 5
8 14 -12 16 -12 10 4 -5 12 -4 16 4 11 7 -4 8 2 2 23 -4 16 -6 32 -2 35 8 9
14 7 9 -1z m-532 -113 c3 -5 -1 -10 -10 -10 -9 0 -13 5 -10 10 3 6 8 10 10 10
2 0 7 -4 10 -10z m-100 -290 c3 -5 -1 -10 -10 -10 -9 0 -13 5 -10 10 3 6 8 10
10 10 2 0 7 -4 10 -10z m1318 -15 c-3 -9 -8 -14 -10 -11 -3 3 -2 9 2 15 9 16
15 13 8 -4z m-527 -4 c-4 -5 -1 -12 4 -14 6 -3 5 -4 -2 -3 -15 3 -23 26 -8 26
6 0 9 -4 6 -9z m34 -57 c0 -8 -19 -13 -24 -6 -3 5 1 9 9 9 8 0 15 -2 15 -3z
m-876 -90 c3 -8 2 -12 -4 -9 -6 3 -10 10 -10 16 0 14 7 11 14 -7z m541 -14 c3
-5 -1 -10 -10 -10 -9 0 -13 5 -10 10 3 6 8 10 10 10 2 0 7 -4 10 -10z m332
-36 c-3 -3 -12 -4 -19 -1 -8 3 -5 6 6 6 11 1 17 -2 13 -5z m-945 -181 c-6 -2
-9 -10 -6 -15 4 -7 2 -8 -5 -4 -13 9 -5 26 12 25 9 0 8 -2 -1 -6z m-32 -117
c0 -2 -7 -9 -15 -16 -13 -11 -14 -10 -9 4 5 14 24 23 24 12z m124 -309 c-5
-15 31 -18 52 -5 6 4 11 2 11 -5 0 -14 -100 -18 -113 -5 -4 4 3 6 14 3 11 -2
23 3 26 11 3 8 8 14 10 14 3 0 3 -6 0 -13z m143 -12 c0 -8 -4 -12 -9 -9 -5 3
-6 10 -3 15 9 13 12 11 12 -6z m1047 2 c-4 -11 -44 -19 -44 -10 0 3 33 18 47
22 1 1 0 -5 -3 -12z m160 0 c-2 -7 -13 -13 -24 -13 -27 0 -25 14 3 19 12 2 23
5 24 6 1 0 0 -5 -3 -12z m153 0 c0 -8 -6 -14 -14 -14 -9 0 -10 4 -2 14 6 7 12
13 14 13 1 0 2 -6 2 -13z m-1607 -5 c0 -5 -7 -9 -15 -9 -8 0 -12 4 -9 9 3 4 9
8 15 8 5 0 9 -4 9 -8z m220 0 c0 -4 -10 -9 -22 -9 -18 -2 -20 0 -8 7 18 12 30
13 30 2z m80 0 c0 -4 -10 -9 -22 -9 -18 -2 -20 0 -8 7 18 12 30 13 30 2z
m1350 -2 c0 -5 -8 -10 -17 -10 -15 0 -16 2 -3 10 19 12 20 12 20 0z"/>
<path d="M1326 1157 c3 -10 9 -15 12 -12 3 3 0 11 -7 18 -10 9 -11 8 -5 -6z"/>
<path d="M1746 2368 c3 -5 10 -6 15 -3 13 9 11 12 -6 12 -8 0 -12 -4 -9 -9z"/>
<path d="M1835 2181 c-3 -5 -2 -12 3 -15 5 -3 9 1 9 9 0 17 -3 19 -12 6z"/>
<path d="M960 1960 c0 -5 1 -11 2 -12 1 -2 -4 -14 -12 -28 -8 -16 -8 -21 -1
-14 12 11 25 64 16 64 -3 0 -5 -4 -5 -10z"/>
<path d="M935 1880 c-3 -5 -2 -10 4 -10 5 0 13 5 16 10 3 6 2 10 -4 10 -5 0
-13 -4 -16 -10z"/>
<path d="M1975 1720 c-3 -5 -1 -10 4 -10 6 0 11 5 11 10 0 6 -2 10 -4 10 -3 0
-8 -4 -11 -10z"/>
<path d="M1980 1696 c0 -2 7 -7 16 -10 8 -3 12 -2 9 4 -6 10 -25 14 -25 6z"/>
<path d="M2055 1481 c-3 -5 -2 -12 3 -15 5 -3 9 1 9 9 0 17 -3 19 -12 6z"/>
<path d="M2160 1121 c0 -10 19 -25 25 -20 1 2 -3 10 -11 17 -8 7 -14 8 -14 3z"/>
<path d="M2296 715 c-3 -8 -1 -15 4 -15 6 0 10 7 10 15 0 8 -2 15 -4 15 -2 0
-6 -7 -10 -15z"/>
<path d="M540 639 c0 -5 5 -7 10 -4 6 3 10 8 10 11 0 2 -4 4 -10 4 -5 0 -10
-5 -10 -11z"/>
</g>
</svg>
