<svg width="36" height="36" viewBox="0 0 36 36" fill="none" xmlns="http://www.w3.org/2000/svg">
<path d="M14.3607 36C13.9016 36 13.541 35.8644 13.2787 35.5932C13.0164 35.322 12.8852 34.9491 12.8852 34.4746L12.9836 27.661C12.9836 27.4576 12.918 27.322 12.7869 27.2542C12.6557 27.1864 12.5246 27.2203 12.3934 27.3559L5.90164 31.2203C5.57377 31.4237 5.31148 31.5254 5.11475 31.5254C4.65574 31.5254 4.2623 31.2542 3.93443 30.7119L0.196721 23.5932C0.0655738 23.3898 0 23.1525 0 22.8814C0 22.2712 0.295082 21.8305 0.885246 21.5593L7.37705 18.2034C7.70492 18 7.70492 17.7966 7.37705 17.5932L0.885246 14.4407C0.295082 14.1017 0 13.661 0 13.1186C0 12.7797 0.0655738 12.5085 0.196721 12.3051L3.93443 5.28813C4.2623 4.74576 4.65574 4.47458 5.11475 4.47458C5.44262 4.47458 5.70492 4.54237 5.90164 4.67797L12.3934 8.54237C12.5246 8.61017 12.6557 8.61017 12.7869 8.54237C12.918 8.47458 12.9836 8.33898 12.9836 8.13559L12.8852 1.52542C12.8852 1.05085 13.0164 0.677967 13.2787 0.40678C13.541 0.135593 13.9016 0 14.3607 0H21.6393C22.0984 0 22.459 0.135593 22.7213 0.40678C22.9836 0.677967 23.1148 1.05085 23.1148 1.52542L23.0164 8.13559C23.0164 8.33898 23.082 8.47458 23.2131 8.54237C23.3443 8.61017 23.4754 8.61017 23.6066 8.54237L30.0984 4.67797C30.2951 4.54237 30.5574 4.47458 30.8852 4.47458C31.3443 4.47458 31.7377 4.74576 32.0656 5.28813L35.8033 12.3051C35.9344 12.5085 36 12.7797 36 13.1186C36 13.5932 35.7049 14 35.1148 14.339L28.4262 17.5932C28.0328 17.7966 28.0328 18 28.4262 18.2034L35.1148 21.5593C35.7049 21.8305 36 22.2712 36 22.8814C36 23.2203 35.9344 23.4915 35.8033 23.6949L32.0656 30.7119C31.7377 31.2542 31.3443 31.5254 30.8852 31.5254C30.623 31.5254 30.3607 31.4237 30.0984 31.2203L23.6066 27.3559C23.4754 27.2203 23.3443 27.1864 23.2131 27.2542C23.082 27.322 23.0164 27.4576 23.0164 27.661L23.1148 34.4746C23.1148 34.9491 22.9836 35.322 22.7213 35.5932C22.459 35.8644 22.0984 36 21.6393 36H14.3607Z" fill="#F7F6F7"/>
</svg>
